<mxfile host="app.diagrams.net" modified="2023-06-14T16:20:42.767Z" agent="Mozilla/5.0 (Windows NT 10.0; Win64; x64) AppleWebKit/537.36 (KHTML, like Gecko) Chrome/114.0.0.0 Safari/537.36" etag="YpVAibvgjeQRswGzfYLI" version="21.3.8" type="device">
  <diagram name="Page-1" id="2a216829-ef6e-dabb-86c1-c78162f3ba2b">
    <mxGraphModel dx="1500" dy="819" grid="1" gridSize="10" guides="1" tooltips="1" connect="1" arrows="1" fold="1" page="1" pageScale="1" pageWidth="850" pageHeight="1100" background="none" math="0" shadow="0">
      <root>
        <mxCell id="0" />
        <mxCell id="1" parent="0" />
        <mxCell id="Az2j2AjTTPYLeO08UPuo-1" value="Szenario" style="swimlane;html=1;childLayout=stackLayout;resizeParent=1;resizeParentMax=0;horizontal=0;startSize=20;horizontalStack=0;whiteSpace=wrap;" parent="1" vertex="1">
          <mxGeometry x="130" y="130" width="2950" height="1280" as="geometry" />
        </mxCell>
        <mxCell id="Az2j2AjTTPYLeO08UPuo-2" value="Tablet" style="swimlane;html=1;startSize=20;horizontal=0;" parent="Az2j2AjTTPYLeO08UPuo-1" vertex="1">
          <mxGeometry x="20" width="2930" height="120" as="geometry" />
        </mxCell>
        <mxCell id="Az2j2AjTTPYLeO08UPuo-12" value="&lt;br&gt;Start" style="whiteSpace=wrap;html=1;verticalAlign=top;labelBackgroundColor=#ffffff;" parent="Az2j2AjTTPYLeO08UPuo-2" vertex="1">
          <mxGeometry x="125" y="30" width="120" height="60" as="geometry" />
        </mxCell>
        <mxCell id="Az2j2AjTTPYLeO08UPuo-45" value="Details&lt;br&gt;auslesen" style="points=[[0.25,0,0],[0.5,0,0],[0.75,0,0],[1,0.25,0],[1,0.5,0],[1,0.75,0],[0.75,1,0],[0.5,1,0],[0.25,1,0],[0,0.75,0],[0,0.5,0],[0,0.25,0]];shape=mxgraph.bpmn.task;whiteSpace=wrap;rectStyle=rounded;size=10;html=1;container=1;expand=0;collapsible=0;taskMarker=send;" parent="Az2j2AjTTPYLeO08UPuo-2" vertex="1">
          <mxGeometry x="590" y="35" width="100" height="50" as="geometry" />
        </mxCell>
        <mxCell id="Az2j2AjTTPYLeO08UPuo-49" value="Maschine" style="text;html=1;align=center;verticalAlign=middle;resizable=0;points=[];autosize=1;strokeColor=none;fillColor=none;" parent="Az2j2AjTTPYLeO08UPuo-2" vertex="1">
          <mxGeometry x="520" y="28" width="70" height="30" as="geometry" />
        </mxCell>
        <mxCell id="Az2j2AjTTPYLeO08UPuo-55" value="" style="edgeStyle=orthogonalEdgeStyle;rounded=0;orthogonalLoop=1;jettySize=auto;html=1;" parent="Az2j2AjTTPYLeO08UPuo-2" source="Az2j2AjTTPYLeO08UPuo-52" target="Az2j2AjTTPYLeO08UPuo-54" edge="1">
          <mxGeometry relative="1" as="geometry" />
        </mxCell>
        <mxCell id="Az2j2AjTTPYLeO08UPuo-52" value="QR" style="whiteSpace=wrap;html=1;" parent="Az2j2AjTTPYLeO08UPuo-2" vertex="1">
          <mxGeometry x="820" y="57.5" width="40" height="27.5" as="geometry" />
        </mxCell>
        <mxCell id="Az2j2AjTTPYLeO08UPuo-57" style="edgeStyle=orthogonalEdgeStyle;rounded=0;orthogonalLoop=1;jettySize=auto;html=1;entryX=0;entryY=0.5;entryDx=0;entryDy=0;entryPerimeter=0;" parent="Az2j2AjTTPYLeO08UPuo-2" source="Az2j2AjTTPYLeO08UPuo-54" target="Az2j2AjTTPYLeO08UPuo-56" edge="1">
          <mxGeometry relative="1" as="geometry" />
        </mxCell>
        <mxCell id="Az2j2AjTTPYLeO08UPuo-54" value="Rätsel 1&lt;br&gt;lösen" style="whiteSpace=wrap;html=1;" parent="Az2j2AjTTPYLeO08UPuo-2" vertex="1">
          <mxGeometry x="900" y="41.25" width="120" height="60" as="geometry" />
        </mxCell>
        <mxCell id="Az2j2AjTTPYLeO08UPuo-56" value="" style="points=[[0.25,0.25,0],[0.5,0,0],[0.75,0.25,0],[1,0.5,0],[0.75,0.75,0],[0.5,1,0],[0.25,0.75,0],[0,0.5,0]];shape=mxgraph.bpmn.gateway2;html=1;verticalLabelPosition=bottom;labelBackgroundColor=#ffffff;verticalAlign=top;align=center;perimeter=rhombusPerimeter;outlineConnect=0;outline=none;symbol=none;gwType=exclusive;" parent="Az2j2AjTTPYLeO08UPuo-2" vertex="1">
          <mxGeometry x="1090" y="46" width="50" height="50" as="geometry" />
        </mxCell>
        <mxCell id="Az2j2AjTTPYLeO08UPuo-68" value="Rätsel gelöst?" style="text;html=1;strokeColor=none;fillColor=none;align=center;verticalAlign=middle;whiteSpace=wrap;rounded=0;" parent="Az2j2AjTTPYLeO08UPuo-2" vertex="1">
          <mxGeometry x="1125" y="16" width="60" height="30" as="geometry" />
        </mxCell>
        <mxCell id="Az2j2AjTTPYLeO08UPuo-86" value="NEIN" style="text;html=1;strokeColor=none;fillColor=none;align=center;verticalAlign=middle;whiteSpace=wrap;rounded=0;" parent="Az2j2AjTTPYLeO08UPuo-2" vertex="1">
          <mxGeometry x="1170" y="71.25" width="60" height="30" as="geometry" />
        </mxCell>
        <mxCell id="Az2j2AjTTPYLeO08UPuo-100" style="edgeStyle=orthogonalEdgeStyle;rounded=0;orthogonalLoop=1;jettySize=auto;html=1;entryX=0;entryY=0.5;entryDx=0;entryDy=0;entryPerimeter=0;" parent="Az2j2AjTTPYLeO08UPuo-2" source="Az2j2AjTTPYLeO08UPuo-97" target="Az2j2AjTTPYLeO08UPuo-99" edge="1">
          <mxGeometry relative="1" as="geometry" />
        </mxCell>
        <mxCell id="Az2j2AjTTPYLeO08UPuo-97" value="&lt;br&gt;Rätsel 2" style="whiteSpace=wrap;html=1;verticalAlign=top;labelBackgroundColor=#ffffff;" parent="Az2j2AjTTPYLeO08UPuo-2" vertex="1">
          <mxGeometry x="1400" y="41.25" width="120" height="60" as="geometry" />
        </mxCell>
        <mxCell id="Az2j2AjTTPYLeO08UPuo-99" value="" style="points=[[0.25,0.25,0],[0.5,0,0],[0.75,0.25,0],[1,0.5,0],[0.75,0.75,0],[0.5,1,0],[0.25,0.75,0],[0,0.5,0]];shape=mxgraph.bpmn.gateway2;html=1;verticalLabelPosition=bottom;labelBackgroundColor=#ffffff;verticalAlign=top;align=center;perimeter=rhombusPerimeter;outlineConnect=0;outline=none;symbol=none;gwType=exclusive;" parent="Az2j2AjTTPYLeO08UPuo-2" vertex="1">
          <mxGeometry x="1570" y="46" width="50" height="50" as="geometry" />
        </mxCell>
        <mxCell id="Az2j2AjTTPYLeO08UPuo-103" value="NEIN" style="text;html=1;align=center;verticalAlign=middle;resizable=0;points=[];autosize=1;strokeColor=none;fillColor=none;" parent="Az2j2AjTTPYLeO08UPuo-2" vertex="1">
          <mxGeometry x="1640" y="66" width="50" height="30" as="geometry" />
        </mxCell>
        <mxCell id="ShIngFsllUwGK6dsJ9Lk-32" value="NEIN" style="text;html=1;align=center;verticalAlign=middle;resizable=0;points=[];autosize=1;strokeColor=none;fillColor=none;" vertex="1" parent="Az2j2AjTTPYLeO08UPuo-2">
          <mxGeometry x="2320" y="36" width="50" height="30" as="geometry" />
        </mxCell>
        <mxCell id="ShIngFsllUwGK6dsJ9Lk-39" value="Rätsel&lt;br&gt;gelöst?" style="text;html=1;align=center;verticalAlign=middle;resizable=0;points=[];autosize=1;strokeColor=none;fillColor=none;" vertex="1" parent="Az2j2AjTTPYLeO08UPuo-2">
          <mxGeometry x="2250" y="6" width="60" height="40" as="geometry" />
        </mxCell>
        <mxCell id="Az2j2AjTTPYLeO08UPuo-3" value="Teilnehmer" style="swimlane;html=1;startSize=20;horizontal=0;" parent="Az2j2AjTTPYLeO08UPuo-1" vertex="1">
          <mxGeometry x="20" y="120" width="2930" height="190" as="geometry" />
        </mxCell>
        <mxCell id="Az2j2AjTTPYLeO08UPuo-11" value="" style="edgeStyle=orthogonalEdgeStyle;rounded=0;orthogonalLoop=1;jettySize=auto;html=1;" parent="Az2j2AjTTPYLeO08UPuo-3" source="Az2j2AjTTPYLeO08UPuo-9" target="Az2j2AjTTPYLeO08UPuo-10" edge="1">
          <mxGeometry relative="1" as="geometry" />
        </mxCell>
        <mxCell id="Az2j2AjTTPYLeO08UPuo-9" value="" style="points=[[0.145,0.145,0],[0.5,0,0],[0.855,0.145,0],[1,0.5,0],[0.855,0.855,0],[0.5,1,0],[0.145,0.855,0],[0,0.5,0]];shape=mxgraph.bpmn.event;html=1;verticalLabelPosition=bottom;labelBackgroundColor=#ffffff;verticalAlign=top;align=center;perimeter=ellipsePerimeter;outlineConnect=0;aspect=fixed;outline=standard;symbol=general;" parent="Az2j2AjTTPYLeO08UPuo-3" vertex="1">
          <mxGeometry x="30" y="35" width="50" height="50" as="geometry" />
        </mxCell>
        <mxCell id="Az2j2AjTTPYLeO08UPuo-10" value="Anlage&lt;br&gt;aktivieren" style="whiteSpace=wrap;html=1;verticalAlign=top;labelBackgroundColor=#ffffff;" parent="Az2j2AjTTPYLeO08UPuo-3" vertex="1">
          <mxGeometry x="125" y="30" width="120" height="60" as="geometry" />
        </mxCell>
        <mxCell id="Az2j2AjTTPYLeO08UPuo-14" value="Datenpaket" style="points=[[0.145,0.145,0],[0.5,0,0],[0.855,0.145,0],[1,0.5,0],[0.855,0.855,0],[0.5,1,0],[0.145,0.855,0],[0,0.5,0]];shape=mxgraph.bpmn.event;html=1;verticalLabelPosition=bottom;labelBackgroundColor=#ffffff;verticalAlign=top;align=center;perimeter=ellipsePerimeter;outlineConnect=0;aspect=fixed;outline=standard;symbol=message;" parent="Az2j2AjTTPYLeO08UPuo-3" vertex="1">
          <mxGeometry x="160" y="100" width="50" height="50" as="geometry" />
        </mxCell>
        <mxCell id="Az2j2AjTTPYLeO08UPuo-40" value="&lt;br&gt;Fehlercode&lt;br&gt;auslesen" style="whiteSpace=wrap;html=1;verticalAlign=top;labelBackgroundColor=#ffffff;" parent="Az2j2AjTTPYLeO08UPuo-3" vertex="1">
          <mxGeometry x="530" y="35" width="120" height="60" as="geometry" />
        </mxCell>
        <mxCell id="Az2j2AjTTPYLeO08UPuo-50" value="Zur Maschine laufen" style="points=[[0.25,0,0],[0.5,0,0],[0.75,0,0],[1,0.25,0],[1,0.5,0],[1,0.75,0],[0.75,1,0],[0.5,1,0],[0.25,1,0],[0,0.75,0],[0,0.5,0],[0,0.25,0]];shape=mxgraph.bpmn.task;whiteSpace=wrap;rectStyle=rounded;size=10;html=1;container=1;expand=0;collapsible=0;taskMarker=receive;" parent="Az2j2AjTTPYLeO08UPuo-3" vertex="1">
          <mxGeometry x="780" y="35" width="120" height="55" as="geometry" />
        </mxCell>
        <mxCell id="Az2j2AjTTPYLeO08UPuo-59" value="JA" style="text;html=1;strokeColor=none;fillColor=none;align=center;verticalAlign=middle;whiteSpace=wrap;rounded=0;" parent="Az2j2AjTTPYLeO08UPuo-3" vertex="1">
          <mxGeometry x="1060" y="20" width="60" height="30" as="geometry" />
        </mxCell>
        <mxCell id="Az2j2AjTTPYLeO08UPuo-95" value="&lt;br&gt;Zum Rätsel&lt;br&gt;navigieren" style="whiteSpace=wrap;html=1;verticalAlign=top;labelBackgroundColor=#ffffff;" parent="Az2j2AjTTPYLeO08UPuo-3" vertex="1">
          <mxGeometry x="1310" y="50" width="120" height="60" as="geometry" />
        </mxCell>
        <mxCell id="Az2j2AjTTPYLeO08UPuo-134" value="JA" style="text;html=1;strokeColor=none;fillColor=none;align=center;verticalAlign=middle;whiteSpace=wrap;rounded=0;" parent="Az2j2AjTTPYLeO08UPuo-3" vertex="1">
          <mxGeometry x="1530" y="20" width="60" height="30" as="geometry" />
        </mxCell>
        <mxCell id="ShIngFsllUwGK6dsJ9Lk-30" value="&lt;br&gt;Rätsel 3" style="whiteSpace=wrap;html=1;verticalAlign=top;labelBackgroundColor=#ffffff;" vertex="1" parent="Az2j2AjTTPYLeO08UPuo-3">
          <mxGeometry x="2050" y="-78.75" width="120" height="60" as="geometry" />
        </mxCell>
        <mxCell id="ShIngFsllUwGK6dsJ9Lk-31" value="" style="points=[[0.25,0.25,0],[0.5,0,0],[0.75,0.25,0],[1,0.5,0],[0.75,0.75,0],[0.5,1,0],[0.25,0.75,0],[0,0.5,0]];shape=mxgraph.bpmn.gateway2;html=1;verticalLabelPosition=bottom;labelBackgroundColor=#ffffff;verticalAlign=top;align=center;perimeter=rhombusPerimeter;outlineConnect=0;outline=none;symbol=none;gwType=exclusive;" vertex="1" parent="Az2j2AjTTPYLeO08UPuo-3">
          <mxGeometry x="2220" y="-74" width="50" height="50" as="geometry" />
        </mxCell>
        <mxCell id="ShIngFsllUwGK6dsJ9Lk-29" style="edgeStyle=orthogonalEdgeStyle;rounded=0;orthogonalLoop=1;jettySize=auto;html=1;entryX=0;entryY=0.5;entryDx=0;entryDy=0;entryPerimeter=0;" edge="1" parent="Az2j2AjTTPYLeO08UPuo-3" source="ShIngFsllUwGK6dsJ9Lk-30" target="ShIngFsllUwGK6dsJ9Lk-31">
          <mxGeometry relative="1" as="geometry" />
        </mxCell>
        <mxCell id="ShIngFsllUwGK6dsJ9Lk-33" value="&lt;br&gt;Zum Rätsel&lt;br&gt;navigieren" style="whiteSpace=wrap;html=1;verticalAlign=top;labelBackgroundColor=#ffffff;" vertex="1" parent="Az2j2AjTTPYLeO08UPuo-3">
          <mxGeometry x="1960" y="50" width="120" height="60" as="geometry" />
        </mxCell>
        <mxCell id="ShIngFsllUwGK6dsJ9Lk-35" value="" style="edgeStyle=orthogonalEdgeStyle;rounded=0;orthogonalLoop=1;jettySize=auto;html=1;entryX=0;entryY=0.5;entryDx=0;entryDy=0;" edge="1" parent="Az2j2AjTTPYLeO08UPuo-3" source="ShIngFsllUwGK6dsJ9Lk-33" target="ShIngFsllUwGK6dsJ9Lk-30">
          <mxGeometry relative="1" as="geometry" />
        </mxCell>
        <mxCell id="ShIngFsllUwGK6dsJ9Lk-34" value="JA" style="text;html=1;strokeColor=none;fillColor=none;align=center;verticalAlign=middle;whiteSpace=wrap;rounded=0;" vertex="1" parent="Az2j2AjTTPYLeO08UPuo-3">
          <mxGeometry x="2190" y="35" width="60" height="30" as="geometry" />
        </mxCell>
        <mxCell id="Az2j2AjTTPYLeO08UPuo-5" value="Förderband" style="swimlane;startSize=20;horizontal=0;html=1;whiteSpace=wrap;" parent="Az2j2AjTTPYLeO08UPuo-1" vertex="1">
          <mxGeometry x="20" y="310" width="2930" height="245" as="geometry" />
        </mxCell>
        <mxCell id="Az2j2AjTTPYLeO08UPuo-19" style="edgeStyle=orthogonalEdgeStyle;rounded=0;orthogonalLoop=1;jettySize=auto;html=1;entryX=0;entryY=0.5;entryDx=0;entryDy=0;entryPerimeter=0;" parent="Az2j2AjTTPYLeO08UPuo-5" source="Az2j2AjTTPYLeO08UPuo-16" target="Az2j2AjTTPYLeO08UPuo-18" edge="1">
          <mxGeometry relative="1" as="geometry" />
        </mxCell>
        <mxCell id="Az2j2AjTTPYLeO08UPuo-16" value="&lt;br&gt;Start / Anrollen" style="whiteSpace=wrap;html=1;verticalAlign=top;labelBackgroundColor=#ffffff;" parent="Az2j2AjTTPYLeO08UPuo-5" vertex="1">
          <mxGeometry x="125" y="55" width="120" height="60" as="geometry" />
        </mxCell>
        <mxCell id="Az2j2AjTTPYLeO08UPuo-18" value="Start Zeit&lt;br&gt;abgelaufen" style="points=[[0.145,0.145,0],[0.5,0,0],[0.855,0.145,0],[1,0.5,0],[0.855,0.855,0],[0.5,1,0],[0.145,0.855,0],[0,0.5,0]];shape=mxgraph.bpmn.event;html=1;verticalLabelPosition=bottom;labelBackgroundColor=#ffffff;verticalAlign=top;align=center;perimeter=ellipsePerimeter;outlineConnect=0;aspect=fixed;outline=standard;symbol=timer;" parent="Az2j2AjTTPYLeO08UPuo-5" vertex="1">
          <mxGeometry x="310" y="60" width="50" height="50" as="geometry" />
        </mxCell>
        <mxCell id="Az2j2AjTTPYLeO08UPuo-37" style="edgeStyle=orthogonalEdgeStyle;rounded=0;orthogonalLoop=1;jettySize=auto;html=1;exitX=1;exitY=0.5;exitDx=0;exitDy=0;entryX=0;entryY=0.5;entryDx=0;entryDy=0;entryPerimeter=0;" parent="Az2j2AjTTPYLeO08UPuo-5" source="Az2j2AjTTPYLeO08UPuo-34" target="Az2j2AjTTPYLeO08UPuo-36" edge="1">
          <mxGeometry relative="1" as="geometry" />
        </mxCell>
        <mxCell id="Az2j2AjTTPYLeO08UPuo-34" value="Stopp" style="rounded=0;whiteSpace=wrap;html=1;" parent="Az2j2AjTTPYLeO08UPuo-5" vertex="1">
          <mxGeometry x="460" y="50" width="120" height="60" as="geometry" />
        </mxCell>
        <mxCell id="Az2j2AjTTPYLeO08UPuo-39" style="edgeStyle=orthogonalEdgeStyle;rounded=0;orthogonalLoop=1;jettySize=auto;html=1;exitX=1;exitY=0.5;exitDx=0;exitDy=0;exitPerimeter=0;entryX=0;entryY=0.5;entryDx=0;entryDy=0;entryPerimeter=0;" parent="Az2j2AjTTPYLeO08UPuo-5" source="Az2j2AjTTPYLeO08UPuo-36" target="Az2j2AjTTPYLeO08UPuo-38" edge="1">
          <mxGeometry relative="1" as="geometry" />
        </mxCell>
        <mxCell id="Az2j2AjTTPYLeO08UPuo-36" value="" style="points=[[0.25,0.25,0],[0.5,0,0],[0.75,0.25,0],[1,0.5,0],[0.75,0.75,0],[0.5,1,0],[0.25,0.75,0],[0,0.5,0]];shape=mxgraph.bpmn.gateway2;html=1;verticalLabelPosition=bottom;labelBackgroundColor=#ffffff;verticalAlign=top;align=center;perimeter=rhombusPerimeter;outlineConnect=0;outline=none;symbol=none;gwType=parallel;" parent="Az2j2AjTTPYLeO08UPuo-5" vertex="1">
          <mxGeometry x="620" y="55" width="50" height="50" as="geometry" />
        </mxCell>
        <mxCell id="Az2j2AjTTPYLeO08UPuo-70" style="edgeStyle=orthogonalEdgeStyle;rounded=0;orthogonalLoop=1;jettySize=auto;html=1;entryX=0;entryY=0.5;entryDx=0;entryDy=0;entryPerimeter=0;" parent="Az2j2AjTTPYLeO08UPuo-5" source="Az2j2AjTTPYLeO08UPuo-38" target="Az2j2AjTTPYLeO08UPuo-69" edge="1">
          <mxGeometry relative="1" as="geometry" />
        </mxCell>
        <mxCell id="Az2j2AjTTPYLeO08UPuo-72" style="edgeStyle=orthogonalEdgeStyle;rounded=0;orthogonalLoop=1;jettySize=auto;html=1;entryX=0;entryY=0.5;entryDx=0;entryDy=0;entryPerimeter=0;" parent="Az2j2AjTTPYLeO08UPuo-5" source="Az2j2AjTTPYLeO08UPuo-38" target="Az2j2AjTTPYLeO08UPuo-71" edge="1">
          <mxGeometry relative="1" as="geometry" />
        </mxCell>
        <mxCell id="Az2j2AjTTPYLeO08UPuo-38" value="" style="points=[[0.25,0.25,0],[0.5,0,0],[0.75,0.25,0],[1,0.5,0],[0.75,0.75,0],[0.5,1,0],[0.25,0.75,0],[0,0.5,0]];shape=mxgraph.bpmn.gateway2;html=1;verticalLabelPosition=bottom;labelBackgroundColor=#ffffff;verticalAlign=top;align=center;perimeter=rhombusPerimeter;outlineConnect=0;outline=catching;symbol=multiple;" parent="Az2j2AjTTPYLeO08UPuo-5" vertex="1">
          <mxGeometry x="700" y="55" width="50" height="50" as="geometry" />
        </mxCell>
        <mxCell id="Az2j2AjTTPYLeO08UPuo-76" style="edgeStyle=orthogonalEdgeStyle;rounded=0;orthogonalLoop=1;jettySize=auto;html=1;entryX=0;entryY=0.5;entryDx=0;entryDy=0;entryPerimeter=0;" parent="Az2j2AjTTPYLeO08UPuo-5" source="Az2j2AjTTPYLeO08UPuo-69" target="Az2j2AjTTPYLeO08UPuo-73" edge="1">
          <mxGeometry relative="1" as="geometry" />
        </mxCell>
        <mxCell id="Az2j2AjTTPYLeO08UPuo-69" value="Rätsel&lt;br&gt;gelöst" style="points=[[0.145,0.145,0],[0.5,0,0],[0.855,0.145,0],[1,0.5,0],[0.855,0.855,0],[0.5,1,0],[0.145,0.855,0],[0,0.5,0]];shape=mxgraph.bpmn.event;html=1;verticalLabelPosition=bottom;labelBackgroundColor=#ffffff;verticalAlign=top;align=center;perimeter=ellipsePerimeter;outlineConnect=0;aspect=fixed;outline=standard;symbol=message;" parent="Az2j2AjTTPYLeO08UPuo-5" vertex="1">
          <mxGeometry x="800" y="10" width="50" height="50" as="geometry" />
        </mxCell>
        <mxCell id="Az2j2AjTTPYLeO08UPuo-83" style="edgeStyle=orthogonalEdgeStyle;rounded=0;orthogonalLoop=1;jettySize=auto;html=1;entryX=0;entryY=0.5;entryDx=0;entryDy=0;entryPerimeter=0;" parent="Az2j2AjTTPYLeO08UPuo-5" source="Az2j2AjTTPYLeO08UPuo-71" target="Az2j2AjTTPYLeO08UPuo-82" edge="1">
          <mxGeometry relative="1" as="geometry" />
        </mxCell>
        <mxCell id="Az2j2AjTTPYLeO08UPuo-71" value="Zeit abgelaufen" style="points=[[0.145,0.145,0],[0.5,0,0],[0.855,0.145,0],[1,0.5,0],[0.855,0.855,0],[0.5,1,0],[0.145,0.855,0],[0,0.5,0]];shape=mxgraph.bpmn.event;html=1;verticalLabelPosition=bottom;labelBackgroundColor=#ffffff;verticalAlign=top;align=center;perimeter=ellipsePerimeter;outlineConnect=0;aspect=fixed;outline=standard;symbol=timer;" parent="Az2j2AjTTPYLeO08UPuo-5" vertex="1">
          <mxGeometry x="800" y="150" width="50" height="50" as="geometry" />
        </mxCell>
        <mxCell id="Az2j2AjTTPYLeO08UPuo-73" value="Zufalls&lt;br&gt;var." style="points=[[0.25,0.25,0],[0.5,0,0],[0.75,0.25,0],[1,0.5,0],[0.75,0.75,0],[0.5,1,0],[0.25,0.75,0],[0,0.5,0]];shape=mxgraph.bpmn.gateway2;html=1;verticalLabelPosition=bottom;labelBackgroundColor=#ffffff;verticalAlign=top;align=center;perimeter=rhombusPerimeter;outlineConnect=0;outline=none;symbol=none;gwType=exclusive;" parent="Az2j2AjTTPYLeO08UPuo-5" vertex="1">
          <mxGeometry x="935" y="10" width="50" height="50" as="geometry" />
        </mxCell>
        <mxCell id="Az2j2AjTTPYLeO08UPuo-84" style="edgeStyle=orthogonalEdgeStyle;rounded=0;orthogonalLoop=1;jettySize=auto;html=1;entryX=0.5;entryY=0;entryDx=0;entryDy=0;entryPerimeter=0;exitX=0.5;exitY=1;exitDx=0;exitDy=0;exitPerimeter=0;" parent="Az2j2AjTTPYLeO08UPuo-5" source="Az2j2AjTTPYLeO08UPuo-73" target="Az2j2AjTTPYLeO08UPuo-82" edge="1">
          <mxGeometry relative="1" as="geometry">
            <mxPoint x="1150" y="122.4799999999999" as="sourcePoint" />
          </mxGeometry>
        </mxCell>
        <mxCell id="Az2j2AjTTPYLeO08UPuo-82" value="" style="points=[[0.25,0.25,0],[0.5,0,0],[0.75,0.25,0],[1,0.5,0],[0.75,0.75,0],[0.5,1,0],[0.25,0.75,0],[0,0.5,0]];shape=mxgraph.bpmn.gateway2;html=1;verticalLabelPosition=bottom;labelBackgroundColor=#ffffff;verticalAlign=top;align=center;perimeter=rhombusPerimeter;outlineConnect=0;outline=end;symbol=general;" parent="Az2j2AjTTPYLeO08UPuo-5" vertex="1">
          <mxGeometry x="1200" y="150" width="50" height="50" as="geometry" />
        </mxCell>
        <mxCell id="ShIngFsllUwGK6dsJ9Lk-46" value="&lt;br style=&quot;border-color: var(--border-color);&quot;&gt;Fehler&lt;br style=&quot;border-color: var(--border-color);&quot;&gt;&lt;span style=&quot;background-color: rgb(255, 255, 255);&quot;&gt;behoben&lt;/span&gt;" style="text;html=1;align=center;verticalAlign=middle;resizable=0;points=[];autosize=1;strokeColor=none;fillColor=none;" vertex="1" parent="Az2j2AjTTPYLeO08UPuo-5">
          <mxGeometry x="985" y="-20" width="70" height="60" as="geometry" />
        </mxCell>
        <mxCell id="ShIngFsllUwGK6dsJ9Lk-47" value="&lt;br style=&quot;border-color: var(--border-color);&quot;&gt;Fehler besteht" style="text;html=1;align=center;verticalAlign=middle;resizable=0;points=[];autosize=1;strokeColor=none;fillColor=none;" vertex="1" parent="Az2j2AjTTPYLeO08UPuo-5">
          <mxGeometry x="985" y="65" width="100" height="40" as="geometry" />
        </mxCell>
        <mxCell id="Az2j2AjTTPYLeO08UPuo-7" value="&lt;p style=&quot;line-height: 100%;&quot;&gt;&lt;font style=&quot;font-size: 8px;&quot;&gt;Subwoofer + Lautsprecher&lt;/font&gt;&lt;/p&gt;" style="swimlane;startSize=20;horizontal=0;html=1;whiteSpace=wrap;" parent="Az2j2AjTTPYLeO08UPuo-1" vertex="1">
          <mxGeometry x="20" y="555" width="2930" height="210" as="geometry" />
        </mxCell>
        <mxCell id="Az2j2AjTTPYLeO08UPuo-20" value="Lautsprecher + Subwoofer Stufe 1 geht an&lt;br&gt;(Leicht pulsierender,&lt;br&gt;langsamer Sound)" style="whiteSpace=wrap;html=1;verticalAlign=top;labelBackgroundColor=#ffffff;" parent="Az2j2AjTTPYLeO08UPuo-7" vertex="1">
          <mxGeometry x="125" y="30" width="120" height="60" as="geometry" />
        </mxCell>
        <mxCell id="Az2j2AjTTPYLeO08UPuo-88" value="Lautsprecher + Subwoofer&lt;br&gt;(schneller, pulsierender Sound)" style="rounded=0;whiteSpace=wrap;html=1;" parent="Az2j2AjTTPYLeO08UPuo-7" vertex="1">
          <mxGeometry x="540" y="90" width="120" height="60" as="geometry" />
        </mxCell>
        <mxCell id="ShIngFsllUwGK6dsJ9Lk-3" value="Lautsprecher + Subwoofer&lt;br&gt;(noch schneller, pulsierender Sound)" style="rounded=0;whiteSpace=wrap;html=1;" vertex="1" parent="Az2j2AjTTPYLeO08UPuo-7">
          <mxGeometry x="1720" y="75" width="120" height="60" as="geometry" />
        </mxCell>
        <mxCell id="Az2j2AjTTPYLeO08UPuo-13" value="" style="edgeStyle=orthogonalEdgeStyle;rounded=0;orthogonalLoop=1;jettySize=auto;html=1;" parent="Az2j2AjTTPYLeO08UPuo-1" source="Az2j2AjTTPYLeO08UPuo-10" target="Az2j2AjTTPYLeO08UPuo-12" edge="1">
          <mxGeometry relative="1" as="geometry" />
        </mxCell>
        <mxCell id="Az2j2AjTTPYLeO08UPuo-17" value="" style="edgeStyle=orthogonalEdgeStyle;rounded=0;orthogonalLoop=1;jettySize=auto;html=1;" parent="Az2j2AjTTPYLeO08UPuo-1" source="Az2j2AjTTPYLeO08UPuo-14" target="Az2j2AjTTPYLeO08UPuo-16" edge="1">
          <mxGeometry relative="1" as="geometry" />
        </mxCell>
        <mxCell id="Az2j2AjTTPYLeO08UPuo-21" value="" style="edgeStyle=orthogonalEdgeStyle;rounded=0;orthogonalLoop=1;jettySize=auto;html=1;" parent="Az2j2AjTTPYLeO08UPuo-1" source="Az2j2AjTTPYLeO08UPuo-18" target="Az2j2AjTTPYLeO08UPuo-20" edge="1">
          <mxGeometry relative="1" as="geometry">
            <Array as="points">
              <mxPoint x="420" y="395" />
              <mxPoint x="420" y="510" />
              <mxPoint x="80" y="510" />
              <mxPoint x="80" y="615" />
            </Array>
          </mxGeometry>
        </mxCell>
        <mxCell id="Az2j2AjTTPYLeO08UPuo-23" style="edgeStyle=orthogonalEdgeStyle;rounded=0;orthogonalLoop=1;jettySize=auto;html=1;entryX=0;entryY=0.5;entryDx=0;entryDy=0;" parent="Az2j2AjTTPYLeO08UPuo-1" source="Az2j2AjTTPYLeO08UPuo-18" target="Az2j2AjTTPYLeO08UPuo-33" edge="1">
          <mxGeometry relative="1" as="geometry">
            <mxPoint x="145" y="854.9999999999998" as="targetPoint" />
            <Array as="points">
              <mxPoint x="420" y="395" />
              <mxPoint x="420" y="510" />
              <mxPoint x="80" y="510" />
              <mxPoint x="80" y="1110" />
            </Array>
          </mxGeometry>
        </mxCell>
        <mxCell id="Az2j2AjTTPYLeO08UPuo-24" style="edgeStyle=orthogonalEdgeStyle;rounded=0;orthogonalLoop=1;jettySize=auto;html=1;entryX=1;entryY=0.5;entryDx=0;entryDy=0;entryPerimeter=0;" parent="Az2j2AjTTPYLeO08UPuo-1" source="Az2j2AjTTPYLeO08UPuo-12" target="Az2j2AjTTPYLeO08UPuo-14" edge="1">
          <mxGeometry relative="1" as="geometry">
            <Array as="points">
              <mxPoint x="360" y="60" />
              <mxPoint x="360" y="245" />
            </Array>
          </mxGeometry>
        </mxCell>
        <mxCell id="Az2j2AjTTPYLeO08UPuo-35" style="edgeStyle=orthogonalEdgeStyle;rounded=0;orthogonalLoop=1;jettySize=auto;html=1;exitX=1;exitY=0.5;exitDx=0;exitDy=0;entryX=0;entryY=0.5;entryDx=0;entryDy=0;" parent="Az2j2AjTTPYLeO08UPuo-1" source="Az2j2AjTTPYLeO08UPuo-33" target="Az2j2AjTTPYLeO08UPuo-34" edge="1">
          <mxGeometry relative="1" as="geometry">
            <Array as="points">
              <mxPoint x="440" y="1110" />
              <mxPoint x="440" y="390" />
            </Array>
          </mxGeometry>
        </mxCell>
        <mxCell id="Az2j2AjTTPYLeO08UPuo-41" value="" style="edgeStyle=orthogonalEdgeStyle;rounded=0;orthogonalLoop=1;jettySize=auto;html=1;" parent="Az2j2AjTTPYLeO08UPuo-1" source="Az2j2AjTTPYLeO08UPuo-36" target="Az2j2AjTTPYLeO08UPuo-40" edge="1">
          <mxGeometry relative="1" as="geometry" />
        </mxCell>
        <mxCell id="Az2j2AjTTPYLeO08UPuo-48" style="edgeStyle=orthogonalEdgeStyle;rounded=0;orthogonalLoop=1;jettySize=auto;html=1;entryX=0;entryY=0.5;entryDx=0;entryDy=0;entryPerimeter=0;" parent="Az2j2AjTTPYLeO08UPuo-1" source="Az2j2AjTTPYLeO08UPuo-40" target="Az2j2AjTTPYLeO08UPuo-45" edge="1">
          <mxGeometry relative="1" as="geometry">
            <Array as="points">
              <mxPoint x="610" y="120" />
              <mxPoint x="580" y="120" />
              <mxPoint x="580" y="60" />
            </Array>
          </mxGeometry>
        </mxCell>
        <mxCell id="Az2j2AjTTPYLeO08UPuo-51" style="edgeStyle=orthogonalEdgeStyle;rounded=0;orthogonalLoop=1;jettySize=auto;html=1;exitX=1;exitY=0.5;exitDx=0;exitDy=0;exitPerimeter=0;entryX=0;entryY=0.5;entryDx=0;entryDy=0;entryPerimeter=0;" parent="Az2j2AjTTPYLeO08UPuo-1" source="Az2j2AjTTPYLeO08UPuo-45" target="Az2j2AjTTPYLeO08UPuo-50" edge="1">
          <mxGeometry relative="1" as="geometry" />
        </mxCell>
        <mxCell id="Az2j2AjTTPYLeO08UPuo-53" value="" style="edgeStyle=orthogonalEdgeStyle;rounded=0;orthogonalLoop=1;jettySize=auto;html=1;" parent="Az2j2AjTTPYLeO08UPuo-1" source="Az2j2AjTTPYLeO08UPuo-50" target="Az2j2AjTTPYLeO08UPuo-52" edge="1">
          <mxGeometry relative="1" as="geometry" />
        </mxCell>
        <mxCell id="Az2j2AjTTPYLeO08UPuo-58" style="edgeStyle=orthogonalEdgeStyle;rounded=0;orthogonalLoop=1;jettySize=auto;html=1;entryX=0.5;entryY=0;entryDx=0;entryDy=0;entryPerimeter=0;" parent="Az2j2AjTTPYLeO08UPuo-1" source="Az2j2AjTTPYLeO08UPuo-56" target="Az2j2AjTTPYLeO08UPuo-38" edge="1">
          <mxGeometry relative="1" as="geometry">
            <Array as="points">
              <mxPoint x="1135" y="250" />
              <mxPoint x="745" y="250" />
            </Array>
          </mxGeometry>
        </mxCell>
        <mxCell id="Az2j2AjTTPYLeO08UPuo-85" style="edgeStyle=orthogonalEdgeStyle;rounded=0;orthogonalLoop=1;jettySize=auto;html=1;entryX=1;entryY=0.5;entryDx=0;entryDy=0;entryPerimeter=0;" parent="Az2j2AjTTPYLeO08UPuo-1" source="Az2j2AjTTPYLeO08UPuo-56" target="Az2j2AjTTPYLeO08UPuo-82" edge="1">
          <mxGeometry relative="1" as="geometry" />
        </mxCell>
        <mxCell id="Az2j2AjTTPYLeO08UPuo-90" style="edgeStyle=orthogonalEdgeStyle;rounded=0;orthogonalLoop=1;jettySize=auto;html=1;entryX=0;entryY=0.5;entryDx=0;entryDy=0;" parent="Az2j2AjTTPYLeO08UPuo-1" source="Az2j2AjTTPYLeO08UPuo-82" target="Az2j2AjTTPYLeO08UPuo-88" edge="1">
          <mxGeometry relative="1" as="geometry">
            <Array as="points">
              <mxPoint x="1245" y="540" />
              <mxPoint x="530" y="540" />
              <mxPoint x="530" y="675" />
            </Array>
          </mxGeometry>
        </mxCell>
        <mxCell id="Az2j2AjTTPYLeO08UPuo-92" style="edgeStyle=orthogonalEdgeStyle;rounded=0;orthogonalLoop=1;jettySize=auto;html=1;exitX=0.5;exitY=1;exitDx=0;exitDy=0;exitPerimeter=0;entryX=0;entryY=0.5;entryDx=0;entryDy=0;" parent="Az2j2AjTTPYLeO08UPuo-1" source="Az2j2AjTTPYLeO08UPuo-82" target="Az2j2AjTTPYLeO08UPuo-91" edge="1">
          <mxGeometry relative="1" as="geometry">
            <Array as="points">
              <mxPoint x="1245" y="540" />
              <mxPoint x="530" y="540" />
              <mxPoint x="530" y="930" />
            </Array>
          </mxGeometry>
        </mxCell>
        <mxCell id="Az2j2AjTTPYLeO08UPuo-96" value="" style="edgeStyle=orthogonalEdgeStyle;rounded=0;orthogonalLoop=1;jettySize=auto;html=1;" parent="Az2j2AjTTPYLeO08UPuo-1" source="Az2j2AjTTPYLeO08UPuo-93" target="Az2j2AjTTPYLeO08UPuo-95" edge="1">
          <mxGeometry relative="1" as="geometry">
            <Array as="points">
              <mxPoint x="755" y="610" />
              <mxPoint x="1390" y="610" />
            </Array>
          </mxGeometry>
        </mxCell>
        <mxCell id="Az2j2AjTTPYLeO08UPuo-98" value="" style="edgeStyle=orthogonalEdgeStyle;rounded=0;orthogonalLoop=1;jettySize=auto;html=1;entryX=0;entryY=0.5;entryDx=0;entryDy=0;" parent="Az2j2AjTTPYLeO08UPuo-1" source="Az2j2AjTTPYLeO08UPuo-95" target="Az2j2AjTTPYLeO08UPuo-97" edge="1">
          <mxGeometry relative="1" as="geometry" />
        </mxCell>
        <mxCell id="Az2j2AjTTPYLeO08UPuo-106" style="edgeStyle=orthogonalEdgeStyle;rounded=0;orthogonalLoop=1;jettySize=auto;html=1;exitX=0.5;exitY=1;exitDx=0;exitDy=0;exitPerimeter=0;entryX=0.5;entryY=0;entryDx=0;entryDy=0;entryPerimeter=0;" parent="Az2j2AjTTPYLeO08UPuo-1" source="Az2j2AjTTPYLeO08UPuo-99" target="Az2j2AjTTPYLeO08UPuo-104" edge="1">
          <mxGeometry relative="1" as="geometry">
            <Array as="points">
              <mxPoint x="1615" y="630" />
              <mxPoint x="835" y="630" />
            </Array>
          </mxGeometry>
        </mxCell>
        <mxCell id="Az2j2AjTTPYLeO08UPuo-8" value="Vaporizer" style="swimlane;startSize=20;horizontal=0;html=1;whiteSpace=wrap;" parent="Az2j2AjTTPYLeO08UPuo-1" vertex="1">
          <mxGeometry x="20" y="765" width="2930" height="285" as="geometry" />
        </mxCell>
        <mxCell id="Az2j2AjTTPYLeO08UPuo-94" style="edgeStyle=orthogonalEdgeStyle;rounded=0;orthogonalLoop=1;jettySize=auto;html=1;exitX=1;exitY=0.5;exitDx=0;exitDy=0;entryX=0;entryY=0.5;entryDx=0;entryDy=0;entryPerimeter=0;" parent="Az2j2AjTTPYLeO08UPuo-8" source="Az2j2AjTTPYLeO08UPuo-91" target="Az2j2AjTTPYLeO08UPuo-93" edge="1">
          <mxGeometry relative="1" as="geometry" />
        </mxCell>
        <mxCell id="Az2j2AjTTPYLeO08UPuo-91" value="Aussendung von&lt;br&gt;Brandduft" style="rounded=0;whiteSpace=wrap;html=1;" parent="Az2j2AjTTPYLeO08UPuo-8" vertex="1">
          <mxGeometry x="540" y="135" width="120" height="60" as="geometry" />
        </mxCell>
        <mxCell id="Az2j2AjTTPYLeO08UPuo-121" style="edgeStyle=orthogonalEdgeStyle;rounded=0;orthogonalLoop=1;jettySize=auto;html=1;exitX=1;exitY=0.5;exitDx=0;exitDy=0;exitPerimeter=0;entryX=0;entryY=0.5;entryDx=0;entryDy=0;entryPerimeter=0;" parent="Az2j2AjTTPYLeO08UPuo-8" source="Az2j2AjTTPYLeO08UPuo-93" target="Az2j2AjTTPYLeO08UPuo-104" edge="1">
          <mxGeometry relative="1" as="geometry" />
        </mxCell>
        <mxCell id="Az2j2AjTTPYLeO08UPuo-93" value="" style="points=[[0.25,0.25,0],[0.5,0,0],[0.75,0.25,0],[1,0.5,0],[0.75,0.75,0],[0.5,1,0],[0.25,0.75,0],[0,0.5,0]];shape=mxgraph.bpmn.gateway2;html=1;verticalLabelPosition=bottom;labelBackgroundColor=#ffffff;verticalAlign=top;align=center;perimeter=rhombusPerimeter;outlineConnect=0;outline=none;symbol=none;gwType=parallel;" parent="Az2j2AjTTPYLeO08UPuo-8" vertex="1">
          <mxGeometry x="710" y="140" width="50" height="50" as="geometry" />
        </mxCell>
        <mxCell id="Az2j2AjTTPYLeO08UPuo-122" style="edgeStyle=orthogonalEdgeStyle;rounded=0;orthogonalLoop=1;jettySize=auto;html=1;exitX=1;exitY=0.5;exitDx=0;exitDy=0;exitPerimeter=0;entryX=0;entryY=0.5;entryDx=0;entryDy=0;entryPerimeter=0;" parent="Az2j2AjTTPYLeO08UPuo-8" source="Az2j2AjTTPYLeO08UPuo-104" target="Az2j2AjTTPYLeO08UPuo-108" edge="1">
          <mxGeometry relative="1" as="geometry" />
        </mxCell>
        <mxCell id="Az2j2AjTTPYLeO08UPuo-123" style="edgeStyle=orthogonalEdgeStyle;rounded=0;orthogonalLoop=1;jettySize=auto;html=1;exitX=1;exitY=0.5;exitDx=0;exitDy=0;exitPerimeter=0;entryX=0;entryY=0.5;entryDx=0;entryDy=0;entryPerimeter=0;" parent="Az2j2AjTTPYLeO08UPuo-8" source="Az2j2AjTTPYLeO08UPuo-104" target="Az2j2AjTTPYLeO08UPuo-110" edge="1">
          <mxGeometry relative="1" as="geometry" />
        </mxCell>
        <mxCell id="Az2j2AjTTPYLeO08UPuo-104" value="" style="points=[[0.25,0.25,0],[0.5,0,0],[0.75,0.25,0],[1,0.5,0],[0.75,0.75,0],[0.5,1,0],[0.25,0.75,0],[0,0.5,0]];shape=mxgraph.bpmn.gateway2;html=1;verticalLabelPosition=bottom;labelBackgroundColor=#ffffff;verticalAlign=top;align=center;perimeter=rhombusPerimeter;outlineConnect=0;outline=standard;symbol=multiple;" parent="Az2j2AjTTPYLeO08UPuo-8" vertex="1">
          <mxGeometry x="790" y="140" width="50" height="50" as="geometry" />
        </mxCell>
        <mxCell id="Az2j2AjTTPYLeO08UPuo-108" value="Rätsel&lt;br&gt;gelöst" style="points=[[0.145,0.145,0],[0.5,0,0],[0.855,0.145,0],[1,0.5,0],[0.855,0.855,0],[0.5,1,0],[0.145,0.855,0],[0,0.5,0]];shape=mxgraph.bpmn.event;html=1;verticalLabelPosition=bottom;labelBackgroundColor=#ffffff;verticalAlign=top;align=center;perimeter=ellipsePerimeter;outlineConnect=0;aspect=fixed;outline=standard;symbol=message;" parent="Az2j2AjTTPYLeO08UPuo-8" vertex="1">
          <mxGeometry x="890" y="50" width="50" height="50" as="geometry" />
        </mxCell>
        <mxCell id="Az2j2AjTTPYLeO08UPuo-110" value="Zeit abgelaufen" style="points=[[0.145,0.145,0],[0.5,0,0],[0.855,0.145,0],[1,0.5,0],[0.855,0.855,0],[0.5,1,0],[0.145,0.855,0],[0,0.5,0]];shape=mxgraph.bpmn.event;html=1;verticalLabelPosition=bottom;labelBackgroundColor=#ffffff;verticalAlign=top;align=center;perimeter=ellipsePerimeter;outlineConnect=0;aspect=fixed;outline=standard;symbol=timer;" parent="Az2j2AjTTPYLeO08UPuo-8" vertex="1">
          <mxGeometry x="890" y="190" width="50" height="50" as="geometry" />
        </mxCell>
        <mxCell id="Az2j2AjTTPYLeO08UPuo-113" value="Zufalls&lt;br&gt;var." style="points=[[0.25,0.25,0],[0.5,0,0],[0.75,0.25,0],[1,0.5,0],[0.75,0.75,0],[0.5,1,0],[0.25,0.75,0],[0,0.5,0]];shape=mxgraph.bpmn.gateway2;html=1;verticalLabelPosition=bottom;labelBackgroundColor=#ffffff;verticalAlign=top;align=center;perimeter=rhombusPerimeter;outlineConnect=0;outline=none;symbol=none;gwType=exclusive;" parent="Az2j2AjTTPYLeO08UPuo-8" vertex="1">
          <mxGeometry x="1025" y="50" width="50" height="50" as="geometry" />
        </mxCell>
        <mxCell id="Az2j2AjTTPYLeO08UPuo-107" style="edgeStyle=orthogonalEdgeStyle;rounded=0;orthogonalLoop=1;jettySize=auto;html=1;entryX=0;entryY=0.5;entryDx=0;entryDy=0;entryPerimeter=0;" parent="Az2j2AjTTPYLeO08UPuo-8" source="Az2j2AjTTPYLeO08UPuo-108" target="Az2j2AjTTPYLeO08UPuo-113" edge="1">
          <mxGeometry relative="1" as="geometry" />
        </mxCell>
        <mxCell id="ShIngFsllUwGK6dsJ9Lk-6" style="edgeStyle=orthogonalEdgeStyle;rounded=0;orthogonalLoop=1;jettySize=auto;html=1;exitX=0.5;exitY=1;exitDx=0;exitDy=0;exitPerimeter=0;entryX=0;entryY=0.5;entryDx=0;entryDy=0;" edge="1" parent="Az2j2AjTTPYLeO08UPuo-8" source="Az2j2AjTTPYLeO08UPuo-117" target="ShIngFsllUwGK6dsJ9Lk-5">
          <mxGeometry relative="1" as="geometry">
            <Array as="points">
              <mxPoint x="1315" y="260" />
              <mxPoint x="1680" y="260" />
              <mxPoint x="1680" y="130" />
            </Array>
          </mxGeometry>
        </mxCell>
        <mxCell id="Az2j2AjTTPYLeO08UPuo-117" value="" style="points=[[0.25,0.25,0],[0.5,0,0],[0.75,0.25,0],[1,0.5,0],[0.75,0.75,0],[0.5,1,0],[0.25,0.75,0],[0,0.5,0]];shape=mxgraph.bpmn.gateway2;html=1;verticalLabelPosition=bottom;labelBackgroundColor=#ffffff;verticalAlign=top;align=center;perimeter=rhombusPerimeter;outlineConnect=0;outline=end;symbol=general;" parent="Az2j2AjTTPYLeO08UPuo-8" vertex="1">
          <mxGeometry x="1290" y="190" width="50" height="50" as="geometry" />
        </mxCell>
        <mxCell id="Az2j2AjTTPYLeO08UPuo-109" style="edgeStyle=orthogonalEdgeStyle;rounded=0;orthogonalLoop=1;jettySize=auto;html=1;entryX=0;entryY=0.5;entryDx=0;entryDy=0;entryPerimeter=0;" parent="Az2j2AjTTPYLeO08UPuo-8" source="Az2j2AjTTPYLeO08UPuo-110" target="Az2j2AjTTPYLeO08UPuo-117" edge="1">
          <mxGeometry relative="1" as="geometry" />
        </mxCell>
        <mxCell id="Az2j2AjTTPYLeO08UPuo-115" style="edgeStyle=orthogonalEdgeStyle;rounded=0;orthogonalLoop=1;jettySize=auto;html=1;entryX=0.5;entryY=0;entryDx=0;entryDy=0;entryPerimeter=0;exitX=0.5;exitY=1;exitDx=0;exitDy=0;exitPerimeter=0;" parent="Az2j2AjTTPYLeO08UPuo-8" source="Az2j2AjTTPYLeO08UPuo-113" target="Az2j2AjTTPYLeO08UPuo-117" edge="1">
          <mxGeometry relative="1" as="geometry">
            <mxPoint x="1240" y="162.47826086956525" as="sourcePoint" />
          </mxGeometry>
        </mxCell>
        <mxCell id="ShIngFsllUwGK6dsJ9Lk-28" style="edgeStyle=orthogonalEdgeStyle;rounded=0;orthogonalLoop=1;jettySize=auto;html=1;exitX=1;exitY=0.5;exitDx=0;exitDy=0;entryX=0;entryY=0.5;entryDx=0;entryDy=0;entryPerimeter=0;" edge="1" parent="Az2j2AjTTPYLeO08UPuo-8" source="ShIngFsllUwGK6dsJ9Lk-5" target="ShIngFsllUwGK6dsJ9Lk-12">
          <mxGeometry relative="1" as="geometry" />
        </mxCell>
        <mxCell id="ShIngFsllUwGK6dsJ9Lk-5" value="Aussendung von&lt;br&gt;Brandduft" style="rounded=0;whiteSpace=wrap;html=1;" vertex="1" parent="Az2j2AjTTPYLeO08UPuo-8">
          <mxGeometry x="1720" y="100" width="120" height="60" as="geometry" />
        </mxCell>
        <mxCell id="ShIngFsllUwGK6dsJ9Lk-12" value="" style="points=[[0.25,0.25,0],[0.5,0,0],[0.75,0.25,0],[1,0.5,0],[0.75,0.75,0],[0.5,1,0],[0.25,0.75,0],[0,0.5,0]];shape=mxgraph.bpmn.gateway2;html=1;verticalLabelPosition=bottom;labelBackgroundColor=#ffffff;verticalAlign=top;align=center;perimeter=rhombusPerimeter;outlineConnect=0;outline=none;symbol=none;gwType=parallel;" vertex="1" parent="Az2j2AjTTPYLeO08UPuo-8">
          <mxGeometry x="1860" y="105" width="50" height="50" as="geometry" />
        </mxCell>
        <mxCell id="ShIngFsllUwGK6dsJ9Lk-15" value="" style="points=[[0.25,0.25,0],[0.5,0,0],[0.75,0.25,0],[1,0.5,0],[0.75,0.75,0],[0.5,1,0],[0.25,0.75,0],[0,0.5,0]];shape=mxgraph.bpmn.gateway2;html=1;verticalLabelPosition=bottom;labelBackgroundColor=#ffffff;verticalAlign=top;align=center;perimeter=rhombusPerimeter;outlineConnect=0;outline=standard;symbol=multiple;" vertex="1" parent="Az2j2AjTTPYLeO08UPuo-8">
          <mxGeometry x="1940" y="105" width="50" height="50" as="geometry" />
        </mxCell>
        <mxCell id="ShIngFsllUwGK6dsJ9Lk-11" style="edgeStyle=orthogonalEdgeStyle;rounded=0;orthogonalLoop=1;jettySize=auto;html=1;exitX=1;exitY=0.5;exitDx=0;exitDy=0;exitPerimeter=0;entryX=0;entryY=0.5;entryDx=0;entryDy=0;entryPerimeter=0;" edge="1" parent="Az2j2AjTTPYLeO08UPuo-8" source="ShIngFsllUwGK6dsJ9Lk-12" target="ShIngFsllUwGK6dsJ9Lk-15">
          <mxGeometry relative="1" as="geometry" />
        </mxCell>
        <mxCell id="ShIngFsllUwGK6dsJ9Lk-16" value="Rätsel&lt;br&gt;gelöst" style="points=[[0.145,0.145,0],[0.5,0,0],[0.855,0.145,0],[1,0.5,0],[0.855,0.855,0],[0.5,1,0],[0.145,0.855,0],[0,0.5,0]];shape=mxgraph.bpmn.event;html=1;verticalLabelPosition=bottom;labelBackgroundColor=#ffffff;verticalAlign=top;align=center;perimeter=ellipsePerimeter;outlineConnect=0;aspect=fixed;outline=standard;symbol=message;" vertex="1" parent="Az2j2AjTTPYLeO08UPuo-8">
          <mxGeometry x="2040" y="15" width="50" height="50" as="geometry" />
        </mxCell>
        <mxCell id="ShIngFsllUwGK6dsJ9Lk-13" style="edgeStyle=orthogonalEdgeStyle;rounded=0;orthogonalLoop=1;jettySize=auto;html=1;exitX=1;exitY=0.5;exitDx=0;exitDy=0;exitPerimeter=0;entryX=0;entryY=0.5;entryDx=0;entryDy=0;entryPerimeter=0;" edge="1" parent="Az2j2AjTTPYLeO08UPuo-8" source="ShIngFsllUwGK6dsJ9Lk-15" target="ShIngFsllUwGK6dsJ9Lk-16">
          <mxGeometry relative="1" as="geometry" />
        </mxCell>
        <mxCell id="ShIngFsllUwGK6dsJ9Lk-17" value="Zeit abgelaufen" style="points=[[0.145,0.145,0],[0.5,0,0],[0.855,0.145,0],[1,0.5,0],[0.855,0.855,0],[0.5,1,0],[0.145,0.855,0],[0,0.5,0]];shape=mxgraph.bpmn.event;html=1;verticalLabelPosition=bottom;labelBackgroundColor=#ffffff;verticalAlign=top;align=center;perimeter=ellipsePerimeter;outlineConnect=0;aspect=fixed;outline=standard;symbol=timer;" vertex="1" parent="Az2j2AjTTPYLeO08UPuo-8">
          <mxGeometry x="2040" y="155" width="50" height="50" as="geometry" />
        </mxCell>
        <mxCell id="ShIngFsllUwGK6dsJ9Lk-14" style="edgeStyle=orthogonalEdgeStyle;rounded=0;orthogonalLoop=1;jettySize=auto;html=1;exitX=1;exitY=0.5;exitDx=0;exitDy=0;exitPerimeter=0;entryX=0;entryY=0.5;entryDx=0;entryDy=0;entryPerimeter=0;" edge="1" parent="Az2j2AjTTPYLeO08UPuo-8" source="ShIngFsllUwGK6dsJ9Lk-15" target="ShIngFsllUwGK6dsJ9Lk-17">
          <mxGeometry relative="1" as="geometry" />
        </mxCell>
        <mxCell id="ShIngFsllUwGK6dsJ9Lk-42" style="edgeStyle=orthogonalEdgeStyle;rounded=0;orthogonalLoop=1;jettySize=auto;html=1;exitX=0.5;exitY=1;exitDx=0;exitDy=0;exitPerimeter=0;" edge="1" parent="Az2j2AjTTPYLeO08UPuo-8" source="ShIngFsllUwGK6dsJ9Lk-24">
          <mxGeometry relative="1" as="geometry">
            <mxPoint x="2464.5" y="385.0000000000002" as="targetPoint" />
          </mxGeometry>
        </mxCell>
        <mxCell id="ShIngFsllUwGK6dsJ9Lk-24" value="" style="points=[[0.25,0.25,0],[0.5,0,0],[0.75,0.25,0],[1,0.5,0],[0.75,0.75,0],[0.5,1,0],[0.25,0.75,0],[0,0.5,0]];shape=mxgraph.bpmn.gateway2;html=1;verticalLabelPosition=bottom;labelBackgroundColor=#ffffff;verticalAlign=top;align=center;perimeter=rhombusPerimeter;outlineConnect=0;outline=end;symbol=general;" vertex="1" parent="Az2j2AjTTPYLeO08UPuo-8">
          <mxGeometry x="2440" y="155" width="50" height="50" as="geometry" />
        </mxCell>
        <mxCell id="ShIngFsllUwGK6dsJ9Lk-25" style="edgeStyle=orthogonalEdgeStyle;rounded=0;orthogonalLoop=1;jettySize=auto;html=1;entryX=0;entryY=0.5;entryDx=0;entryDy=0;entryPerimeter=0;" edge="1" parent="Az2j2AjTTPYLeO08UPuo-8" source="ShIngFsllUwGK6dsJ9Lk-17" target="ShIngFsllUwGK6dsJ9Lk-24">
          <mxGeometry relative="1" as="geometry" />
        </mxCell>
        <mxCell id="ShIngFsllUwGK6dsJ9Lk-44" value="&lt;br style=&quot;border-color: var(--border-color);&quot;&gt;Fehler&lt;br style=&quot;border-color: var(--border-color);&quot;&gt;&lt;span style=&quot;background-color: rgb(255, 255, 255);&quot;&gt;behoben&lt;/span&gt;" style="text;html=1;strokeColor=none;fillColor=none;align=center;verticalAlign=middle;whiteSpace=wrap;rounded=0;" vertex="1" parent="Az2j2AjTTPYLeO08UPuo-8">
          <mxGeometry x="1075" y="35" width="60" height="30" as="geometry" />
        </mxCell>
        <mxCell id="ShIngFsllUwGK6dsJ9Lk-45" value="&lt;br style=&quot;border-color: var(--border-color);&quot;&gt;Fehler besteht" style="text;html=1;align=center;verticalAlign=middle;resizable=0;points=[];autosize=1;strokeColor=none;fillColor=none;" vertex="1" parent="Az2j2AjTTPYLeO08UPuo-8">
          <mxGeometry x="1075" y="100" width="100" height="40" as="geometry" />
        </mxCell>
        <mxCell id="Az2j2AjTTPYLeO08UPuo-130" value="&lt;br&gt;Aus" style="whiteSpace=wrap;html=1;verticalAlign=top;labelBackgroundColor=#ffffff;" parent="Az2j2AjTTPYLeO08UPuo-8" vertex="1">
          <mxGeometry x="2715" y="112.5" width="120" height="60" as="geometry" />
        </mxCell>
        <mxCell id="Az2j2AjTTPYLeO08UPuo-6" value="&lt;font style=&quot;font-size: 10px;&quot;&gt;Wärmelampe + Licht&lt;/font&gt;" style="swimlane;startSize=20;horizontal=0;html=1;whiteSpace=wrap;" parent="Az2j2AjTTPYLeO08UPuo-1" vertex="1">
          <mxGeometry x="20" y="1050" width="2930" height="230" as="geometry" />
        </mxCell>
        <mxCell id="Az2j2AjTTPYLeO08UPuo-33" value="Andon&lt;br style=&quot;border-color: var(--border-color);&quot;&gt;geht an" style="rounded=0;whiteSpace=wrap;html=1;" parent="Az2j2AjTTPYLeO08UPuo-6" vertex="1">
          <mxGeometry x="125" y="30" width="120" height="60" as="geometry" />
        </mxCell>
        <mxCell id="ShIngFsllUwGK6dsJ9Lk-1" value="LED-Leuchte bei der Maschine flackert&lt;br&gt;(blau)" style="rounded=0;whiteSpace=wrap;html=1;" vertex="1" parent="Az2j2AjTTPYLeO08UPuo-6">
          <mxGeometry x="550" y="60" width="120" height="60" as="geometry" />
        </mxCell>
        <mxCell id="ShIngFsllUwGK6dsJ9Lk-7" value="LED-Leuchte bei der Maschine flackert&lt;br&gt;(rot)" style="rounded=0;whiteSpace=wrap;html=1;" vertex="1" parent="Az2j2AjTTPYLeO08UPuo-6">
          <mxGeometry x="1720" y="50" width="120" height="60" as="geometry" />
        </mxCell>
        <mxCell id="ShIngFsllUwGK6dsJ9Lk-43" value="Szenario&lt;br&gt;gescheitert&lt;br&gt;(Alles aus)" style="points=[[0.145,0.145,0],[0.5,0,0],[0.855,0.145,0],[1,0.5,0],[0.855,0.855,0],[0.5,1,0],[0.145,0.855,0],[0,0.5,0]];shape=mxgraph.bpmn.event;html=1;verticalLabelPosition=bottom;labelBackgroundColor=#ffffff;verticalAlign=top;align=center;perimeter=ellipsePerimeter;outlineConnect=0;aspect=fixed;outline=end;symbol=cancel;" vertex="1" parent="Az2j2AjTTPYLeO08UPuo-6">
          <mxGeometry x="2440" y="100" width="50" height="50" as="geometry" />
        </mxCell>
        <mxCell id="ShIngFsllUwGK6dsJ9Lk-2" style="edgeStyle=orthogonalEdgeStyle;rounded=0;orthogonalLoop=1;jettySize=auto;html=1;exitX=0.5;exitY=1;exitDx=0;exitDy=0;exitPerimeter=0;entryX=0;entryY=0.5;entryDx=0;entryDy=0;" edge="1" parent="Az2j2AjTTPYLeO08UPuo-1" source="Az2j2AjTTPYLeO08UPuo-82" target="ShIngFsllUwGK6dsJ9Lk-1">
          <mxGeometry relative="1" as="geometry">
            <Array as="points">
              <mxPoint x="1245" y="540" />
              <mxPoint x="530" y="540" />
              <mxPoint x="530" y="1140" />
            </Array>
          </mxGeometry>
        </mxCell>
        <mxCell id="Az2j2AjTTPYLeO08UPuo-102" style="edgeStyle=orthogonalEdgeStyle;rounded=0;orthogonalLoop=1;jettySize=auto;html=1;exitX=1;exitY=0.5;exitDx=0;exitDy=0;exitPerimeter=0;entryX=1;entryY=0.5;entryDx=0;entryDy=0;entryPerimeter=0;" parent="Az2j2AjTTPYLeO08UPuo-1" source="Az2j2AjTTPYLeO08UPuo-99" edge="1" target="Az2j2AjTTPYLeO08UPuo-117">
          <mxGeometry relative="1" as="geometry">
            <mxPoint x="1670" y="71.66666666666674" as="targetPoint" />
          </mxGeometry>
        </mxCell>
        <mxCell id="ShIngFsllUwGK6dsJ9Lk-4" style="edgeStyle=orthogonalEdgeStyle;rounded=0;orthogonalLoop=1;jettySize=auto;html=1;exitX=0.5;exitY=1;exitDx=0;exitDy=0;exitPerimeter=0;entryX=0;entryY=0.5;entryDx=0;entryDy=0;" edge="1" parent="Az2j2AjTTPYLeO08UPuo-1" source="Az2j2AjTTPYLeO08UPuo-117" target="ShIngFsllUwGK6dsJ9Lk-3">
          <mxGeometry relative="1" as="geometry">
            <mxPoint x="1720" y="800" as="targetPoint" />
            <Array as="points">
              <mxPoint x="1335" y="1025" />
              <mxPoint x="1700" y="1025" />
              <mxPoint x="1700" y="660" />
            </Array>
          </mxGeometry>
        </mxCell>
        <mxCell id="ShIngFsllUwGK6dsJ9Lk-36" style="edgeStyle=orthogonalEdgeStyle;rounded=0;orthogonalLoop=1;jettySize=auto;html=1;exitX=0.5;exitY=0;exitDx=0;exitDy=0;exitPerimeter=0;entryX=0.5;entryY=1;entryDx=0;entryDy=0;" edge="1" parent="Az2j2AjTTPYLeO08UPuo-1" source="ShIngFsllUwGK6dsJ9Lk-12" target="ShIngFsllUwGK6dsJ9Lk-33">
          <mxGeometry relative="1" as="geometry" />
        </mxCell>
        <mxCell id="ShIngFsllUwGK6dsJ9Lk-37" style="edgeStyle=orthogonalEdgeStyle;rounded=0;orthogonalLoop=1;jettySize=auto;html=1;exitX=0.5;exitY=1;exitDx=0;exitDy=0;exitPerimeter=0;entryX=0.5;entryY=0;entryDx=0;entryDy=0;entryPerimeter=0;" edge="1" parent="Az2j2AjTTPYLeO08UPuo-1" source="ShIngFsllUwGK6dsJ9Lk-31" target="ShIngFsllUwGK6dsJ9Lk-15">
          <mxGeometry relative="1" as="geometry">
            <Array as="points">
              <mxPoint x="2265" y="660" />
              <mxPoint x="1985" y="660" />
            </Array>
          </mxGeometry>
        </mxCell>
        <mxCell id="ShIngFsllUwGK6dsJ9Lk-38" style="edgeStyle=orthogonalEdgeStyle;rounded=0;orthogonalLoop=1;jettySize=auto;html=1;exitX=1;exitY=0.5;exitDx=0;exitDy=0;exitPerimeter=0;entryX=1;entryY=0.5;entryDx=0;entryDy=0;entryPerimeter=0;" edge="1" parent="Az2j2AjTTPYLeO08UPuo-1" source="ShIngFsllUwGK6dsJ9Lk-31" target="ShIngFsllUwGK6dsJ9Lk-24">
          <mxGeometry relative="1" as="geometry" />
        </mxCell>
        <mxCell id="ShIngFsllUwGK6dsJ9Lk-48" style="edgeStyle=orthogonalEdgeStyle;rounded=0;orthogonalLoop=1;jettySize=auto;html=1;exitX=0.5;exitY=1;exitDx=0;exitDy=0;exitPerimeter=0;entryX=0;entryY=0.5;entryDx=0;entryDy=0;" edge="1" parent="Az2j2AjTTPYLeO08UPuo-1" source="Az2j2AjTTPYLeO08UPuo-117" target="ShIngFsllUwGK6dsJ9Lk-7">
          <mxGeometry relative="1" as="geometry" />
        </mxCell>
        <mxCell id="Az2j2AjTTPYLeO08UPuo-101" value="Rätsel&lt;br&gt;gelöst?" style="text;html=1;align=center;verticalAlign=middle;resizable=0;points=[];autosize=1;strokeColor=none;fillColor=none;" parent="1" vertex="1">
          <mxGeometry x="1740" y="143" width="60" height="40" as="geometry" />
        </mxCell>
        <mxCell id="Az2j2AjTTPYLeO08UPuo-124" value="" style="points=[[0.25,0.25,0],[0.5,0,0],[0.75,0.25,0],[1,0.5,0],[0.75,0.75,0],[0.5,1,0],[0.25,0.75,0],[0,0.5,0]];shape=mxgraph.bpmn.gateway2;html=1;verticalLabelPosition=bottom;labelBackgroundColor=#ffffff;verticalAlign=top;align=center;perimeter=rhombusPerimeter;outlineConnect=0;outline=none;symbol=none;gwType=parallel;" parent="1" vertex="1">
          <mxGeometry x="2760" y="765" width="50" height="50" as="geometry" />
        </mxCell>
        <mxCell id="Az2j2AjTTPYLeO08UPuo-128" value="&lt;br&gt;Aus" style="whiteSpace=wrap;html=1;verticalAlign=top;labelBackgroundColor=#ffffff;" parent="1" vertex="1">
          <mxGeometry x="2865" y="760" width="120" height="60" as="geometry" />
        </mxCell>
        <mxCell id="Az2j2AjTTPYLeO08UPuo-132" value="Szenario&lt;br&gt;erfolgreich&lt;br&gt;beendet" style="points=[[0.145,0.145,0],[0.5,0,0],[0.855,0.145,0],[1,0.5,0],[0.855,0.855,0],[0.5,1,0],[0.145,0.855,0],[0,0.5,0]];shape=mxgraph.bpmn.event;html=1;verticalLabelPosition=bottom;labelBackgroundColor=#ffffff;verticalAlign=top;align=center;perimeter=ellipsePerimeter;outlineConnect=0;aspect=fixed;outline=end;symbol=terminate;" parent="1" vertex="1">
          <mxGeometry x="2900" y="1290" width="50" height="50" as="geometry" />
        </mxCell>
        <mxCell id="Az2j2AjTTPYLeO08UPuo-129" value="" style="edgeStyle=orthogonalEdgeStyle;rounded=0;orthogonalLoop=1;jettySize=auto;html=1;" parent="1" source="Az2j2AjTTPYLeO08UPuo-124" target="Az2j2AjTTPYLeO08UPuo-128" edge="1">
          <mxGeometry relative="1" as="geometry" />
        </mxCell>
        <mxCell id="Az2j2AjTTPYLeO08UPuo-126" style="edgeStyle=orthogonalEdgeStyle;rounded=0;orthogonalLoop=1;jettySize=auto;html=1;entryX=0.5;entryY=1;entryDx=0;entryDy=0;entryPerimeter=0;exitX=1;exitY=0.5;exitDx=0;exitDy=0;exitPerimeter=0;" parent="1" source="Az2j2AjTTPYLeO08UPuo-113" target="Az2j2AjTTPYLeO08UPuo-124" edge="1">
          <mxGeometry relative="1" as="geometry">
            <mxPoint x="1390" y="970.0000000000002" as="sourcePoint" />
          </mxGeometry>
        </mxCell>
        <mxCell id="Az2j2AjTTPYLeO08UPuo-127" style="edgeStyle=orthogonalEdgeStyle;rounded=0;orthogonalLoop=1;jettySize=auto;html=1;entryX=0.5;entryY=0;entryDx=0;entryDy=0;entryPerimeter=0;exitX=1;exitY=0.5;exitDx=0;exitDy=0;exitPerimeter=0;" parent="1" source="Az2j2AjTTPYLeO08UPuo-73" target="Az2j2AjTTPYLeO08UPuo-124" edge="1">
          <mxGeometry relative="1" as="geometry">
            <mxPoint x="1300" y="475" as="sourcePoint" />
          </mxGeometry>
        </mxCell>
        <mxCell id="Az2j2AjTTPYLeO08UPuo-131" value="" style="edgeStyle=orthogonalEdgeStyle;rounded=0;orthogonalLoop=1;jettySize=auto;html=1;" parent="1" source="Az2j2AjTTPYLeO08UPuo-128" target="Az2j2AjTTPYLeO08UPuo-130" edge="1">
          <mxGeometry relative="1" as="geometry" />
        </mxCell>
        <mxCell id="Az2j2AjTTPYLeO08UPuo-133" style="edgeStyle=orthogonalEdgeStyle;rounded=0;orthogonalLoop=1;jettySize=auto;html=1;entryX=0.5;entryY=0;entryDx=0;entryDy=0;entryPerimeter=0;" parent="1" source="Az2j2AjTTPYLeO08UPuo-130" target="Az2j2AjTTPYLeO08UPuo-132" edge="1">
          <mxGeometry relative="1" as="geometry" />
        </mxCell>
        <mxCell id="ShIngFsllUwGK6dsJ9Lk-41" style="edgeStyle=orthogonalEdgeStyle;rounded=0;orthogonalLoop=1;jettySize=auto;html=1;exitX=1;exitY=0.5;exitDx=0;exitDy=0;exitPerimeter=0;entryX=0;entryY=0.5;entryDx=0;entryDy=0;entryPerimeter=0;" edge="1" parent="1" source="ShIngFsllUwGK6dsJ9Lk-16" target="Az2j2AjTTPYLeO08UPuo-124">
          <mxGeometry relative="1" as="geometry" />
        </mxCell>
        <mxCell id="ShIngFsllUwGK6dsJ9Lk-49" value="Wärmelampe geht an" style="whiteSpace=wrap;html=1;" vertex="1" parent="1">
          <mxGeometry x="1870" y="1320" width="120" height="60" as="geometry" />
        </mxCell>
        <mxCell id="ShIngFsllUwGK6dsJ9Lk-50" style="edgeStyle=orthogonalEdgeStyle;rounded=0;orthogonalLoop=1;jettySize=auto;html=1;exitX=0.5;exitY=1;exitDx=0;exitDy=0;exitPerimeter=0;entryX=0;entryY=0.5;entryDx=0;entryDy=0;" edge="1" parent="1" source="Az2j2AjTTPYLeO08UPuo-117" target="ShIngFsllUwGK6dsJ9Lk-49">
          <mxGeometry relative="1" as="geometry" />
        </mxCell>
      </root>
    </mxGraphModel>
  </diagram>
</mxfile>
